<?xml version="1.0" standalone="no"?>
<!DOCTYPE svg PUBLIC "-//W3C//DTD SVG 20010904//EN"
 "http://www.w3.org/TR/2001/REC-SVG-20010904/DTD/svg10.dtd">
<svg version="1.0" xmlns="http://www.w3.org/2000/svg"
 width="482.000000pt" height="482.000000pt" viewBox="0 0 482.000000 482.000000"
 preserveAspectRatio="xMidYMid meet">
<metadata>
Created by potrace 1.11, written by Peter Selinger 2001-2013
</metadata>
<g transform="translate(0.000000,482.000000) scale(0.100000,-0.100000)"
fill="#000000" stroke="none">
<path d="M2145 4804 c-428 -53 -811 -200 -1147 -442 -169 -120 -357 -302 -496
-478 -92 -116 -246 -379 -304 -519 -45 -109 -104 -278 -112 -320 -1 -5 -5 -19
-9 -30 -3 -11 -8 -31 -11 -45 -3 -14 -14 -72 -25 -130 -11 -58 -25 -145 -29
-195 -10 -94 -9 -475 0 -491 3 -5 9 -40 13 -79 4 -38 8 -72 10 -75 2 -3 6 -23
9 -45 4 -22 17 -83 31 -135 200 -790 782 -1424 1550 -1688 96 -33 194 -61 235
-68 14 -3 59 -11 100 -19 166 -32 256 -40 450 -39 221 0 293 8 560 60 85 17
272 79 392 130 335 143 658 384 897 669 72 86 71 85 165 225 177 266 318 624
362 920 3 19 7 46 10 60 19 109 26 446 12 585 -61 584 -338 1135 -771 1530
-108 99 -100 92 -172 145 -33 25 -62 48 -65 51 -15 17 -259 159 -345 200 -201
96 -527 195 -705 214 -30 3 -66 9 -80 12 -49 11 -426 10 -525 -3z"/>
</g>
</svg>
